<svg xmlns="http://www.w3.org/2000/svg" width="33" height="32" viewBox="0 0 33 32" fill="none">
  <path d="M25.8334 5.33325H7.16675C6.10588 5.33325 5.08847 5.75468 4.33832 6.50482C3.58818 7.25497 3.16675 8.27239 3.16675 9.33325V22.6666C3.16675 23.7274 3.58818 24.7449 4.33832 25.495C5.08847 26.2452 6.10588 26.6666 7.16675 26.6666H25.8334C26.8943 26.6666 27.9117 26.2452 28.6618 25.495C29.412 24.7449 29.8334 23.7274 29.8334 22.6666V9.33325C29.8334 8.27239 29.412 7.25497 28.6618 6.50482C27.9117 5.75468 26.8943 5.33325 25.8334 5.33325ZM25.2867 7.99992L17.4467 15.8399C17.3228 15.9649 17.1753 16.0641 17.0129 16.1318C16.8504 16.1995 16.6761 16.2343 16.5001 16.2343C16.3241 16.2343 16.1498 16.1995 15.9873 16.1318C15.8248 16.0641 15.6774 15.9649 15.5534 15.8399L7.71341 7.99992H25.2867ZM27.1667 22.6666C27.1667 23.0202 27.0263 23.3593 26.7762 23.6094C26.5262 23.8594 26.187 23.9999 25.8334 23.9999H7.16675C6.81313 23.9999 6.47399 23.8594 6.22394 23.6094C5.97389 23.3593 5.83341 23.0202 5.83341 22.6666V9.87992L13.6734 17.7199C14.4234 18.469 15.4401 18.8897 16.5001 18.8897C17.5601 18.8897 18.5767 18.469 19.3267 17.7199L27.1667 9.87992V22.6666Z" fill="#FFD600"/>
</svg>