<svg width="125" height="79" viewBox="0 0 125 79" fill="none" xmlns="http://www.w3.org/2000/svg">
<path d="M107.404 51.3425C113.461 37.5976 107.307 21.508 93.6568 15.4082C80.0051 9.30763 64.028 15.5055 57.9695 29.252C51.9111 42.9985 58.0662 59.0865 71.7179 65.187C85.3681 71.2869 101.345 65.0891 107.404 51.3425Z" fill="#F4900C"/>
<path d="M102.72 27.7362C103.298 27.5122 104.045 27.9726 104.67 28.8243C111.43 26.9124 120.061 29.1081 120.45 29.2097C121.327 29.441 121.852 30.3365 121.627 31.218C121.402 32.0995 120.509 32.6322 119.632 32.4046C119.546 32.3827 111.673 30.3899 105.815 31.9357C105.878 32.9117 105.625 33.6837 105.077 33.8953C104.233 34.224 103.02 33.1099 102.369 31.409C101.718 29.7095 101.876 28.065 102.72 27.7362Z" fill="#662113"/>
<path d="M92.7375 11.3863C92.7375 11.3863 94.5197 19.979 99.7497 24.0404C103.729 27.1313 109.613 29.8872 110.817 28.7638C112.018 27.6413 111.079 21.7727 106.958 17.3024C102.837 12.8335 92.7375 11.3863 92.7375 11.3863Z" fill="#5C913B"/>
<path d="M48.8612 23.6155C42.6493 13.9721 29.8489 11.2242 20.2721 17.4791C10.6942 23.7348 7.96624 36.6234 14.1788 46.2678C20.3913 55.9122 33.191 58.6591 42.7689 52.4035C52.3457 46.1485 55.0737 33.2599 48.8612 23.6155Z" fill="#F4900C"/>
<path d="M31.8953 16.7809C31.9939 16.315 32.5987 16.0253 33.4013 15.9777C35.0072 10.8211 40.0061 6.17286 40.2331 5.9644C40.7463 5.49541 41.535 5.5306 42.0015 6.04385C42.468 6.55711 42.434 7.35513 41.9233 7.82555C41.8737 7.87146 37.3198 12.1163 35.8575 16.5386C36.5045 16.9054 36.89 17.3904 36.7955 17.8325C36.6522 18.514 35.4376 18.8306 34.0843 18.5402C32.7318 18.2509 31.752 17.4624 31.8953 16.7809Z" fill="#662113"/>
<path d="M17.3312 16.3933C17.3312 16.3933 23.5393 18.831 28.3051 17.1542C31.9317 15.8786 36.1404 13.235 35.9283 11.9903C35.7159 10.7472 31.5922 8.90278 27.0293 9.69376C22.4671 10.4858 17.3312 16.3933 17.3312 16.3933Z" fill="#5C913B"/>
</svg>
