<svg xmlns="http://www.w3.org/2000/svg" width="33" height="32" viewBox="0 0 33 32" fill="none">
  <path d="M26.4199 17.3332C26.1266 17.3332 25.8199 17.2399 25.5266 17.1732C24.9325 17.0423 24.3488 16.8686 23.7799 16.6532C23.1613 16.4282 22.4814 16.4399 21.871 16.686C21.2605 16.9322 20.7627 17.3954 20.4732 17.9866L20.1799 18.5866C18.8812 17.8641 17.6879 16.9669 16.6332 15.9199C15.5862 14.8653 14.689 13.6719 13.9666 12.3732L14.5266 11.9999C15.1177 11.7105 15.5809 11.2126 15.8271 10.6022C16.0732 9.99171 16.0849 9.31179 15.8599 8.69324C15.6482 8.12314 15.4745 7.53964 15.3399 6.94657C15.2732 6.65324 15.2199 6.34657 15.1799 6.03991C15.018 5.10073 14.5261 4.25023 13.7927 3.64156C13.0594 3.03289 12.1328 2.70605 11.1799 2.71991H7.17989C6.60527 2.71451 6.03622 2.83299 5.5115 3.06728C4.98678 3.30157 4.5187 3.64617 4.13913 4.07761C3.75956 4.50906 3.4774 5.01723 3.31187 5.56752C3.14635 6.11782 3.10133 6.69732 3.17989 7.26657C3.89021 12.8524 6.44126 18.0424 10.4301 22.0168C14.4189 25.9911 19.6182 28.5233 25.2066 29.2132H25.7132C26.6964 29.2147 27.6458 28.8539 28.3799 28.1999C28.8017 27.8226 29.1387 27.3601 29.3685 26.843C29.5984 26.3259 29.7158 25.7658 29.7132 25.1999V21.1999C29.6969 20.2738 29.3596 19.382 28.759 18.6768C28.1584 17.9716 27.3316 17.4967 26.4199 17.3332ZM27.0866 25.3332C27.0863 25.5226 27.0458 25.7096 26.9676 25.8821C26.8894 26.0545 26.7754 26.2083 26.6332 26.3332C26.4842 26.4619 26.31 26.558 26.1218 26.6154C25.9335 26.6728 25.7353 26.6902 25.5399 26.6666C20.5464 26.0263 15.9082 23.7419 12.3568 20.1736C8.80549 16.6054 6.5431 11.9564 5.92656 6.95991C5.90534 6.7646 5.92393 6.56701 5.98123 6.37909C6.03852 6.19117 6.13332 6.01682 6.25989 5.86657C6.38484 5.72435 6.53864 5.61036 6.71106 5.5322C6.88349 5.45403 7.07058 5.41348 7.25989 5.41324H11.2599C11.57 5.40634 11.8727 5.50775 12.1161 5.7C12.3594 5.89225 12.5282 6.16333 12.5932 6.46657C12.6466 6.83102 12.7132 7.19102 12.7932 7.54657C12.9473 8.24943 13.1522 8.94015 13.4066 9.61324L11.5399 10.4799C11.3803 10.5531 11.2367 10.6572 11.1174 10.786C10.9981 10.9149 10.9055 11.0661 10.8448 11.2308C10.7841 11.3956 10.7565 11.5707 10.7637 11.7462C10.7709 11.9217 10.8126 12.094 10.8866 12.2532C12.8055 16.3636 16.1096 19.6676 20.2199 21.5866C20.5445 21.7199 20.9086 21.7199 21.2332 21.5866C21.3995 21.5271 21.5523 21.4352 21.6828 21.3162C21.8133 21.1971 21.9188 21.0534 21.9932 20.8932L22.8199 19.0266C23.5092 19.2731 24.2127 19.4779 24.9266 19.6399C25.2821 19.7199 25.6421 19.7866 26.0066 19.8399C26.3098 19.905 26.5809 20.0737 26.7731 20.317C26.9654 20.5604 27.0668 20.8632 27.0599 21.1732L27.0866 25.3332Z" fill="#FFD600"/>
</svg>